:FULLY-SPECIFIED
:FORCE-ALL-JOINTS-BE-3DOF
:DEGREES
883
root 3.87962 16.5034 30.5245 -11.2114 22.3653 0.49996
lfemur -14.8871 18.5875 -20.0831
ltibia 40.4646 -0 0
lfoot -13.67 -1.93066 0.0695852
ltoes -1.71229 0 0
rfemur -80.2464 -23.4118 37.4246
rtibia 97.1527 -0 0
rfoot 16.5584 24.3524 -0.0908482
rtoes -12.9948 0 0
lowerback 15.7672 -3.61634 -7.2559
upperback 5.27688 -5.91557 -2.81478
thorax -2.73216 -2.92714 2.11677
lowerneck -7.53305 -3.15932 1.71401
upperneck 3.76776 -4.66675 4.84807
head 2.59806 -2.13325 1.04724
lclavicle 3.74709e-14 7.95139e-15 0
lhumerus -33.6821 -39.7772 87.6485
lradius 62.2214 -0 0
lwrist 21.4339 0 0
lhand 24.7114 11.9094 -0.0349784
lfingers 7.12502 -0 0
lthumb 48.9066 33.768 -0.0114885
rclavicle 3.74709e-14 7.95139e-15 0
rhumerus -48.1652 -28.7619 -47.6713
rradius 71.8754 -0 0
rwrist -22.3195 0 0
rhand -40.5205 -40.2737 0.242674
rfingers 7.12502 -0 0
rthumb -13.4679 -69.7483 0.232172
884
root 3.87113 16.4989 30.5936 -10.7004 22.8236 0.374369
lfemur -15.6226 19.5104 -20.1033
ltibia 40.9709 -0 0
lfoot -13.9576 -1.14996 0.0983107
ltoes -1.81328 0 0
rfemur -78.3145 -24.0357 36.1987
rtibia 98.65 -0 0
rfoot 16.6886 22.8438 -0.100372
rtoes -10.876 0 0
lowerback 15.243 -3.71734 -7.18882
upperback 5.06865 -6.00569 -2.74845
thorax -2.66262 -2.97049 2.12258
lowerneck -7.53625 -3.34038 1.54019
upperneck 3.78232 -4.89378 4.87527
head 2.61641 -2.24824 1.07412
lclavicle 3.74709e-14 7.95139e-15 0
lhumerus -34.4844 -40.367 88.8547
lradius 62.3517 -0 0
lwrist 20.9216 0 0
lhand 25.172 12.237 -0.0458066
lfingers 7.12502 -0 0
lthumb 49.3334 33.9114 -0.0143902
rclavicle 3.74709e-14 7.95139e-15 0
rhumerus -47.6916 -28.0515 -49.5022
rradius 74.184 -0 0
rwrist -22.0452 0 0
rhand -39.1271 -39.5321 0.440282
rfingers 7.12502 -0 0
rthumb -12.1236 -68.9956 0.425349
885
root 3.86293 16.4943 30.6643 -10.1438 23.3215 0.220867
lfemur -16.46 20.4961 -20.1424
ltibia 41.5208 -0 0
lfoot -14.2375 -0.415224 0.123171
ltoes -1.74517 0 0
rfemur -75.9216 -24.5842 34.5566
rtibia 100.005 -0 0
rfoot 16.7326 20.9821 -0.0908618
rtoes -8.50479 0 0
lowerback 14.6305 -3.81957 -7.09372
upperback 4.82517 -6.08869 -2.65965
thorax -2.58373 -3.01021 2.12875
lowerneck -7.53482 -3.54691 1.34745
upperneck 3.82412 -5.15398 4.8965
head 2.64462 -2.37958 1.10054
lclavicle 3.74709e-14 7.95139e-15 0
lhumerus -35.4195 -40.9117 90.1942
lradius 62.4693 -0 0
lwrist 20.3491 0 0
lhand 25.5827 12.5538 -0.0524668
lfingers 7.12502 -0 0
lthumb 49.7127 34.0548 -0.0156866
rclavicle 3.74709e-14 7.95139e-15 0
rhumerus -47.2204 -27.0648 -51.5514
rradius 76.6699 -0 0
rwrist -21.5651 0 0
rhand -37.2657 -38.6132 0.658362
rfingers 7.12502 -0 0
rthumb -10.328 -68.0592 0.639746
886
root 3.85476 16.4894 30.7363 -9.54981 23.8452 0.0477387
lfemur -17.3781 21.5195 -20.1963
ltibia 42.1015 -0 0
lfoot -14.5068 0.261192 0.144059
ltoes -1.53317 0 0
rfemur -73.1304 -25.0207 32.5524
rtibia 101.204 -0 0
rfoot 16.7005 18.8252 -0.0676648
rtoes -5.93732 0 0
lowerback 13.9439 -3.91976 -6.9737
upperback 4.55235 -6.16216 -2.5529
thorax -2.49706 -3.0453 2.1335
lowerneck -7.52904 -3.77395 1.13939
upperneck 3.88887 -5.44099 4.9125
head 2.68104 -2.52411 1.12647
lclavicle 3.74709e-14 7.95139e-15 0
lhumerus -36.4684 -41.4042 91.6451
lradius 62.5737 -0 0
lwrist 19.7282 0 0
lhand 25.9497 12.8598 -0.0552796
lfingers 7.12502 -0 0
lthumb 50.0504 34.1964 -0.0155974
rclavicle 3.74709e-14 7.95139e-15 0
rhumerus -46.7748 -25.8287 -53.7727
rradius 79.2955 -0 0
rwrist -20.9074 0 0
rhand -35.0136 -37.5398 0.872654
rfingers 7.12502 -0 0
rthumb -8.15547 -66.9631 0.851213
887
root 3.84637 16.4844 30.809 -8.92679 24.3804 -0.137067
lfemur -18.3553 22.5557 -20.2599
ltibia 42.7003 -0 0
lfoot -14.7621 0.866925 0.160704
ltoes -1.20246 0 0
rfemur -70.0103 -25.3109 30.2473
rtibia 102.232 -0 0
rfoot 16.6023 16.4308 -0.036602
rtoes -3.22985 0 0
lowerback 13.198 -4.01466 -6.83196
upperback 4.25612 -6.22373 -2.43279
thorax -2.40418 -3.07472 2.13506
lowerneck -7.5192 -4.0166 0.919593
upperneck 3.97229 -5.74846 4.92406
head 2.72403 -2.67871 1.15192
lclavicle 3.74709e-14 7.95139e-15 0
lhumerus -37.6105 -41.8382 93.1834
lradius 62.6641 -0 0
lwrist 19.0706 0 0
lhand 26.279 13.1545 -0.0546519
lfingers 7.12502 -0 0
lthumb 50.3521 34.3346 -0.0143525
rclavicle 3.74709e-14 7.95139e-15 0
rhumerus -46.3755 -24.3716 -56.1231
rradius 82.023 -0 0
rwrist -20.1001 0 0
rhand -32.4489 -36.3368 1.06025
rfingers 7.12502 -0 0
rthumb -5.68107 -65.7333 1.03692
